# xmcd
#
# Track frame offsets: 
#        150
#        15546
#        33078
#        44938
#        55017
#        71170
#        86068
#        92339
#        107795
#        120955
#        130311
#        141034
#        154324
#        170244
#        184128
#        196732
#        210836
#
# Disc length: 2967 seconds
#
# Revision: 0
# Processed by: cddbd v1.5.2PL0 Copyright (c) Steve Scherf et al.
# Submitted via: ExactAudioCopyFreeDBPlugin 1.0
#
DISCID=e70b9511
DTITLE=Mountain Top Bluegrass - Best of Mountain Top Bluegrass Disc 2
DYEAR=2006
DGENRE=Bluegrass
TTITLE0=The Uncloudy Day
TTITLE1=It Is Well With My Soul
TTITLE2=Footprints Of Jesus
TTITLE3=The Solid Rock
TTITLE4=What You Got
TTITLE5=When I Survey
TTITLE6=Praise Him
TTITLE7=I Still Do
TTITLE8=Jesus Loves Me
TTITLE9=Leaning On The Everlasting Arms
TTITLE10=Savior Like A Shepherd
TTITLE11=Were You There
TTITLE12=One Step
TTITLE13=I Am A Man Of Constant Sorrow
TTITLE14=Tis So Sweet
TTITLE15=At The Crossroads
TTITLE16=Only Trust Him
EXTD=
EXTT0=
EXTT1=
EXTT2=
EXTT3=
EXTT4=
EXTT5=
EXTT6=
EXTT7=
EXTT8=
EXTT9=
EXTT10=
EXTT11=
EXTT12=
EXTT13=
EXTT14=
EXTT15=
EXTT16=
PLAYORDER=
